<svg xmlns="http://www.w3.org/2000/svg" width="325.418" height="325.417">
    <path class="cameraPath" d="M199.285 71.517c-.611-13.464 1.225-28.151-1.225-41.004-.611-4.284-1.836-6.731-5.508-8.568-7.956-3.672-22.645-1.224-31.211-1.224-15.3 0-30.6 0-45.9 1.224-5.508.612-5.508 7.956 0 8.568 12.852 1.224 26.316.612 39.78.612 4.896 0 29.988-3.672 33.047 0 4.896 4.896 1.836 26.928 2.448 34.271 0 5.508.611 11.017.611 16.524 0 3.06 0 6.731.612 9.792 1.836 6.12.611 8.567-3.673 7.344-7.956 3.672-26.927 1.224-35.495 1.224-8.568.612-28.764 4.896-35.496-1.224-6.12-6.12-2.448-25.704-2.448-34.884 0-11.017.612-21.42-1.224-32.437 0-1.224-2.448-1.224-3.06 0-3.06 12.24-3.06 25.704-3.672 38.557-.612 11.628-3.06 25.092-.612 36.107.612 1.225 1.836 2.448 3.06 3.061 11.016 3.06 25.092.611 36.72 0 14.076-.612 31.824 1.836 45.288-1.225 14.691-4.281 7.958-23.865 7.958-36.718z"/>
    <path class="cameraPath" d="M321.073 203.709v-4.896-1.837c0-18.973.611-38.557-12.24-53.856-1.836-1.836-4.283-1.225-5.508 0 0-2.448-1.225-4.896-3.672-4.896-44.063 0-88.128.612-132.191 1.836 0-1.836-1.225-4.284-1.225-6.12-.612-2.447-.612-4.896-.612-6.731 10.404 0 21.421-1.225 31.824-2.448 12.239-1.836 17.748-3.672 20.195-16.524 3.061-13.464 1.225-28.151 1.225-41.615.612-13.464 4.284-33.048.612-45.288-4.284-14.688-17.748-14.076-31.213-16.524-25.091-3.672-55.079-7.344-80.171-2.448-9.18 1.837-15.912 4.284-16.524 14.076-.612 4.896 7.344 4.896 7.956 0 .612-10.403 44.676-7.956 52.632-7.956 14.076.612 34.271 0 47.124 6.12 15.912 7.956 11.628 26.316 11.628 42.229 0 9.792 3.672 39.779-1.225 48.348-14.075 22.644-67.319 14.688-89.351 12.24-18.36-1.836-23.256-7.344-25.704-25.092-.612-7.345.612-15.912 1.224-23.257.612-15.3 1.224-31.212.612-46.512 0-1.836-2.448-1.836-3.06-.612-4.284 26.316-8.568 57.528-6.732 84.456 1.224 15.301 9.792 15.912 23.868 17.748 11.628 1.225 22.644 2.448 34.272 3.061-.612 3.06-.612 5.508-1.224 8.567 0 1.836-.612 3.672 0 4.896-19.584.612-39.168 1.836-58.752 3.06-5.508-.611-10.404-1.224-15.912-1.224.612-6.12 1.836-14.688-4.896-17.136-4.284-1.225-10.404-.612-14.688-.612-6.12 0-12.24.612-18.36.612-2.448 0-3.672 1.836-3.06 4.283.612 4.896 1.836 9.792 2.448 14.688-4.284.612-9.18 1.836-13.464 2.448-1.224 0-1.836.611-1.836 1.224-1.224-.612-2.448-.612-2.448.612-6.732 31.825-6.732 64.873-7.344 97.309-.612 16.523-9.18 55.079 3.672 69.155s47.736 6.732 63.648 6.732c37.944 0 76.5.611 114.443 1.224 33.659 0 70.991 4.896 104.651.612 14.075-1.836 23.867-6.732 27.54-20.809 7.958-28.763 2.451-68.543 1.838-99.143zm-8.567 34.884c-20.196 1.226-39.78 4.896-60.589 4.896.612-4.284.612-8.568.612-13.464 18.972 2.446 40.392 4.282 58.14-1.226.612 0 .612-.61 1.225-.61 0 3.061 0 6.732.612 10.404zm-.612-15.3c-.611-.612-1.224-.612-1.836-.612-19.584.612-37.943 3.673-57.527 2.448 0-3.06-.612-5.508-1.225-7.956 19.584 1.836 41.004 3.062 60.588-.611v6.731zm-63.649-16.523c17.748 5.509 44.677 2.447 63.647-3.061v6.12c-20.809.612-41.004 3.06-61.812 3.06-.61-2.447-1.224-4.284-1.835-6.119zm50.796-59.365c1.225 0 2.448-.611 3.061-1.224 0 .612 0 1.224.612 1.836 3.061 4.896 5.508 9.792 7.344 15.301-13.464 0-28.151 1.837-41.004 5.509-1.836-6.121-2.447-12.854-2.447-18.974 0-.611 0-.611-.612-1.224 11.015-.612 22.03-1.224 33.046-1.224zM160.73 127.821c-.612 2.448-1.224 4.896-1.224 7.345 0 1.836 0 4.284.612 6.12-3.06 0-6.732 0-9.792.611v-4.896c0-3.061-.612-5.508-1.224-8.568 3.671-.612 7.343-.612 11.628-.612zm-105.265 4.896c1.836 0 6.732-.612 8.568.612.612.611 0 6.731 0 9.792-9.18 0-18.36.611-27.54 1.836-.612-3.672-.612-7.956-1.224-11.628 6.733-.612 13.464-.612 20.196-.612zM19.357 155.36c14.688-2.447 29.988-4.283 44.676-5.508h.612c65.484 2.448 131.579 1.225 197.676-1.224v.612c-2.448 8.567-1.836 17.136 0 25.705.611 2.446 3.061 3.06 4.896 2.446 14.688-1.836 29.376-3.672 44.676-4.282.612 7.344 1.225 14.688.612 22.03-10.404 1.226-21.42 3.062-31.824 4.284-11.017 1.226-22.645.612-33.048 4.284-.612 0-.612.612-.612.612-12.239-27.54-41.615-46.514-70.991-39.168-29.376-4.897-58.14 12.852-74.052 37.942-27.54-5.508-56.916-4.896-85.068-4.896.612-14.688.612-29.376 0-43.453.612.616 1.837.616 2.447.616zm155.449 128.521c-.611 4.896-1.225 9.792-1.225 14.688v5.508c-6.731.611-13.463.611-20.196 0 1.224-7.956 3.06-16.524 2.448-23.868 10.404 3.672 22.032 4.284 33.047 1.224.611 2.448 1.224 4.896 1.836 7.956 1.225 3.062 2.447 6.732 5.508 7.956 1.225.612 2.448-.61 2.448-1.836 0-3.06-1.836-5.508-3.061-7.956-1.225-2.446-1.836-4.896-2.448-7.956.612 0 1.225-.61 1.225-.61 3.672-1.836 7.345-3.673 10.404-6.12 1.224 4.896 4.283 11.016 8.567 14.076-10.404 7.955-22.645 14.075-35.496 16.522-.611-1.836-.611-3.672-1.225-5.508-.611-4.284-.611-8.568 0-13.464.615-1.223-1.221-1.835-1.832-.612zm-17.137-100.979c-3.06.61-6.12 1.836-8.568 3.06-1.836-3.06-4.284-5.508-6.732-7.956 3.672-1.836 7.344-3.06 11.016-4.896v.61c1.224 3.062 2.449 6.121 4.284 9.182zm-1.224-11.017c3.06-.61 6.12-1.836 9.18-1.836 0 .612.612 1.836 1.837 1.226 2.447 0 4.896-.612 7.955-.612l1.836 7.344c0 .612.612 1.226.612 1.226-5.509 0-11.017.61-16.524 1.836-1.223-2.451-3.06-5.512-4.896-9.184zm-11.628 15.912c-1.836.612-3.06 1.226-4.896 2.448-1.224.612-1.224 1.836-.612 3.06-2.448 1.836-4.284 3.672-6.12 6.12-3.06-2.448-6.732-4.896-9.18-8.566l-.612-.612c4.284-4.284 9.18-7.344 14.688-10.404 2.449 2.447 4.286 5.506 6.732 7.954zm-14.688 14.077c-3.06 3.672-5.508 7.956-7.344 12.24-4.896-2.448-10.404-4.284-15.912-5.509 3.672-5.509 7.956-11.017 12.852-15.911 3.062 4.283 6.12 7.956 10.404 9.18zm-8.567 17.748c-1.836 6.12-2.448 12.24-1.224 18.972l-.612-.61c-6.732-1.837-14.688-.612-22.032-.612 1.224-8.568 3.672-17.136 7.344-24.48 6.119 1.833 11.015 4.281 16.524 6.73zm-1.835 21.42c.612 0 .612-.612.612-.612.612 3.673 1.836 7.346 3.06 10.404 0 .612.612 1.224 1.224 1.836-7.344 5.508-14.076 12.24-20.808 18.972-4.284-8.566-6.732-18.972-6.12-29.986 6.73-.002 15.3 1.221 22.032-.614zm-14.078 33.047c7.344-5.508 14.688-11.016 20.808-17.136 3.06 4.896 6.12 8.567 10.404 12.24-.612 0-1.224 0-1.224.61-5.508 6.732-10.404 14.688-14.688 22.646-6.732-4.896-12.24-11.018-16.524-17.748.614-.612 1.224-.612 1.224-.612zm33.048-2.448v-.61c3.672 3.06 7.956 5.508 12.852 7.956-2.448 7.344-2.448 15.912-2.448 24.479-4.284-.61-8.568-1.836-12.24-3.06-.612-.612-1.224-.612-1.836-1.226h-.612c-3.06-1.224-6.12-3.06-9.18-4.896 4.896-6.731 10.404-14.687 13.464-22.643zm-7.343-23.256c-9.792-22.644 1.836-47.124 22.644-58.752 18.971-4.896 39.78-3.672 54.467 10.404 22.645 21.42 7.344 58.752-17.137 70.38-22.03 10.405-50.182.613-59.974-22.032zm52.631-77.111c4.896.61 9.792 1.224 14.688 2.446-2.448 2.448-3.673 4.896-4.896 7.346-3.061-.612-6.731-1.226-9.792-1.837 1.224-.611 1.836-1.836 1.224-3.673-.611-.61-1.224-2.446-1.224-4.282zm39.168 31.212c-1.836-3.062-4.284-6.12-6.731-8.568 3.061-1.224 5.508-3.672 7.344-6.12 3.672 3.672 7.345 7.344 9.792 12.24-3.061 1.223-6.12 3.059-10.405 2.448zm13.464 2.447c1.836 4.284 3.672 8.568 4.896 13.466-3.672-.612-7.956-.612-11.628 0h-1.225c-.611-3.062-1.225-6.732-2.447-9.792 3.059-.613 7.345-1.226 10.404-3.674zm-25.704-15.3c-3.672-2.447-7.344-4.284-11.628-6.12 1.836-2.446 3.672-4.896 5.508-7.344 5.509 1.836 10.404 4.896 14.688 7.956-2.448 2.449-5.507 4.285-8.568 5.508zm2.448 89.353c-1.836-2.448-3.061-4.896-3.673-7.346 0-.61-.611-1.224-1.224-1.224l7.344-7.344c1.836 1.224 4.284 2.447 6.12 3.672 2.448 1.224 4.896 3.06 7.956 4.284-3.672 4.896-7.345 9.18-11.628 12.852-1.834-1.835-3.671-3.058-4.895-4.894zm11.628-18.361c-1.836-1.224-3.672-2.448-6.12-3.06 2.448-3.674 4.896-7.956 6.12-12.24h.611c2.448 0 4.896 0 7.345.611 2.447.611 4.283 1.837 6.731 1.837-1.836 6.118-4.284 11.628-7.345 17.136-1.222-1.835-4.281-2.448-7.342-4.284zm2.449-20.807c1.225-4.896 1.837-10.404 1.837-15.912h.611c4.283 0 8.567 0 12.853-.612.611 6.732.611 13.464-.612 19.584-4.285-2.449-10.405-3.06-14.689-3.06zM16.91 202.486c26.928 3.06 55.692 6.119 82.62 3.672-2.448 4.284-4.284 7.956-5.508 12.24a69838.12 69838.12 0 0 0-77.724-3.674c-.001-3.671.612-7.954.612-12.238zm-1.837 30.599c24.48-1.836 48.96-.612 72.828-3.06 1.836 0 2.448-3.062.612-3.062-23.868-3.672-49.572.612-73.44 4.284 0-2.448.612-4.896.612-6.731v-5.509c25.092 1.836 50.796 3.672 75.888 4.896-1.224 4.284-2.448 9.18-3.06 13.464v5.508l-.612-.612c-23.868-2.446-49.572-1.224-74.052 0 1.224-3.057 1.224-6.117 1.224-9.178zm-3.058 37.332c25.704.612 52.02 3.672 77.724 1.836 1.836 0 2.448-3.06.612-3.672-24.48-4.896-52.632-3.061-77.724-.612l1.836-22.031c24.48 1.225 50.184 2.447 74.052 0 0 0 .612 0 .612-.611 0 3.06 0 5.508.612 8.567l-.612-.611c-23.256-5.508-49.572-2.448-73.44-1.225-2.448 0-2.448 4.283 0 4.283 23.868-1.224 48.96 2.448 72.828.612.612 0 1.224-.612 1.224-1.225 1.836 11.017 6.12 21.421 12.24 29.376-29.376-2.447-59.364-1.225-89.352-1.225-.612-4.282-.612-9.177-.612-13.462zm271.726 44.065h-12.24c-11.628 1.836-24.479 0-36.107 0h-78.335c-23.868 0-48.348.61-72.216.61-24.48 0-64.872 8.568-71.604-22.031-.612-1.837-.612-3.673-.612-6.119 30.6 1.224 61.812 3.672 92.412 2.446 2.448 3.062 5.508 5.51 8.568 7.956-30.6-1.224-61.812 0-92.412.612-1.224 0-1.224 1.836 0 2.448 33.66 2.447 68.544 4.896 102.816 3.672 13.464 7.344 30.6 11.016 47.736 9.18 9.181-.611 18.36-3.06 26.929-6.73 36.107.61 72.827-.612 108.323-6.12-4.285 7.344-11.63 11.628-23.258 14.076zm26.317-20.809c-33.048 1.225-66.708 4.284-99.756 7.956 4.896-3.06 9.792-6.12 14.075-10.403 28.765-.611 57.528-.611 86.292-2.447 0 1.835-.611 3.671-.611 4.894zm.611-12.851c-26.928.61-53.855 3.06-80.783 5.508 5.508-5.508 9.792-11.628 13.464-18.36.611.612 1.225.612 1.836.612 22.032 0 45.899 1.224 67.32-2.448-.612 4.896-.612 9.791-1.837 14.688zm-65.483-16.525c2.448-5.508 4.284-11.016 5.509-17.136 19.584 2.448 42.229 3.672 61.812-1.836v14.076c-22.033-1.224-45.289 2.448-67.321 4.896z"/>
    <path class="cameraPath" d="M160.73 40.305c-4.284 3.672-7.344 7.956-9.792 13.464-4.284-3.672-8.568-6.731-14.688-7.344-7.956-1.224-14.076 6.12-10.404 13.464 4.284 8.568 12.24 15.3 21.42 18.36 4.896 4.284 12.852 3.06 15.3-4.284 6.731-6.732 11.016-15.3 13.464-24.48 1.835-9.793-8.568-15.3-15.3-9.18z"/>

    <style>
      @media (prefers-color-scheme: light) {
        .cameraPath {
          fill: #999;
        }
      }

      @media (prefers-color-scheme: dark) {
        .cameraPath {
          fill: #fff;
        }
      }
    </style>
</svg>
